<svg xmlns="http://www.w3.org/2000/svg" viewBox="0 0 64 64">
  <defs>
    <linearGradient id="g" x1="0" y1="0" x2="1" y2="1">
      <stop offset="0%" stop-color="#0ea5e9"/>
      <stop offset="100%" stop-color="#0284c7"/>
    </linearGradient>
  </defs>
  <rect width="64" height="64" rx="12" fill="url(#g)"/>
  <path d="M10 38c8-2 12-10 22-10s14 8 22 10" fill="none" stroke="#fff" stroke-width="4" stroke-linecap="round"/>
  <path d="M10 26c8-2 12-10 22-10s14 8 22 10" fill="none" stroke="#e0f2fe" stroke-width="3" stroke-linecap="round" opacity="0.9"/>
  <circle cx="48" cy="20" r="3" fill="#fff"/>
</svg>
<svg xmlns="http://www.w3.org/2000/svg" viewBox="0 0 64 64">
  <defs>
    <linearGradient id="bg" x1="0" y1="0" x2="1" y2="1">
      <stop offset="0%" stop-color="#0ea5e9"/>
      <stop offset="100%" stop-color="#6366f1"/>
    </linearGradient>
  </defs>
  <!-- Rounded square background -->
  <rect width="64" height="64" rx="12" fill="url(#bg)"/>

  <!-- Simplified NeuralCrew mark (clean for small sizes) -->
  <circle cx="32" cy="32" r="6" fill="#ffffff" opacity="0.95"/>

  <!-- Outer nodes -->
  <circle cx="20" cy="20" r="3" fill="#e0f2fe"/>
  <circle cx="44" cy="20" r="3" fill="#e0f2fe"/>
  <circle cx="44" cy="44" r="3" fill="#e0f2fe"/>
  <circle cx="20" cy="44" r="3" fill="#e0f2fe"/>

  <!-- Connections -->
  <path d="M32 32 L20 20 M32 32 L44 20 M32 32 L44 44 M32 32 L20 44" stroke="#ffffff" stroke-width="2" stroke-linecap="round" opacity="0.75"/>
</svg>

